<?xml version="1.0" encoding="UTF-8"?>
<svg version="1.1" xmlns="http://www.w3.org/2000/svg" width="1129" height="751">
<path d="M0 0 C0.91762115 -0.00067474 1.83524231 -0.00134949 2.78067017 -0.00204468 C16.49417404 0.01397804 29.77483036 0.50515722 43.25 3.25 C44.14589844 3.42160645 45.04179688 3.59321289 45.96484375 3.77001953 C70.47961525 8.5259192 96.49143235 17.11619018 115.25 34.25 C115.92546875 34.78625 116.6009375 35.3225 117.296875 35.875 C130.17913301 46.26069638 141.41536869 64.5958226 143.25 81.25 C144.57123875 101.63321314 142.63925692 117.46489577 129 133.4375 C114.14343647 149.2878136 93.30089002 154.91895119 72.23046875 156.47265625 C57.1874135 156.94596715 43.57095425 152.98810506 30.25 146.25 C50.05656921 179.17603306 80.90767745 195.71866821 114.625 211.6875 C169.16121971 237.57219631 169.16121971 237.57219631 180.58984375 265.52734375 C186.10795143 281.41399541 185.66082215 297.05254287 178.625 312.375 C175.36208452 318.54634138 171.19881239 323.36739246 166.25 328.25 C165.21746094 329.29800781 165.21746094 329.29800781 164.1640625 330.3671875 C141.13479953 352.36912276 106.45208487 357.96573442 75.95703125 357.49609375 C49.81299983 356.75585564 23.89612792 349.16748529 5.25 330.25 C1.51285327 332.69455908 -2.04654895 335.25085572 -5.5625 338 C-33.70002075 358.4015986 -73.53190668 363.29848352 -107.27685547 358.42578125 C-110.48153751 357.85387349 -113.60701109 357.0947424 -116.75 356.25 C-117.98621094 355.92128906 -119.22242188 355.59257812 -120.49609375 355.25390625 C-139.51394903 349.53469691 -157.94742814 339.20831165 -167.75 321.25 C-174.368583 306.47483429 -176.35455792 291.56688609 -170.90625 276.078125 C-169.37688384 272.33737805 -167.69510356 268.7928672 -165.75 265.25 C-183.96838013 276.40699248 -199.18195816 292.51064189 -214.11328125 307.59716797 C-215.98567197 309.48799213 -217.86597006 311.37077626 -219.75 313.25 C-219.15649488 308.61711676 -217.21290285 304.94036951 -214.9375 300.9375 C-214.34352417 299.89070068 -214.34352417 299.89070068 -213.73754883 298.82275391 C-209.06457983 290.8003892 -203.55327893 283.48155183 -197.75 276.25 C-197.26128418 275.63882324 -196.77256836 275.02764648 -196.26904297 274.39794922 C-178.77668485 252.74157941 -157.24961824 237.21172188 -132.75 224.25 C-133.9359375 224.10304688 -135.121875 223.95609375 -136.34375 223.8046875 C-156.87053504 221.05086026 -174.99321662 214.68171348 -188.75 198.25 C-196.00274267 188.16614287 -199.81055799 176.72137636 -198.75 164.25 C-196.02016667 148.63442797 -186.98091322 136.79779497 -174.31640625 127.703125 C-144.80275984 107.59201963 -107.79295767 103.38483384 -73.22363281 109.75390625 C-56.48504389 113.11087552 -41.30345723 119.80417555 -27.75 130.25 C-26.739375 130.971875 -25.72875 131.69375 -24.6875 132.4375 C-14.10930875 141.6032623 -6.80656284 155.30714402 -5.75 169.25 C-5.6215616 182.52731953 -9.69837139 193.44283975 -18.609375 203.30859375 C-33.03137688 217.21552413 -53.04314759 221.86837497 -72.00912476 225.95907593 C-84.83303141 228.74394435 -97.48535937 231.77251057 -109.9375 235.9375 C-110.97293945 236.28135742 -112.00837891 236.62521484 -113.07519531 236.97949219 C-125.40368177 241.26748501 -137.58358456 245.90300695 -144 257.8125 C-150.56692555 272.0731158 -151.03360635 285.26125568 -146.03515625 300.11328125 C-139.89795683 315.09252482 -129.07698231 323.14827215 -114.70849609 329.45605469 C-110.17122898 331.29539558 -105.55927575 332.40473335 -100.75 333.25 C-98.89375 333.5903125 -98.89375 333.5903125 -97 333.9375 C-71.30072902 336.4126347 -42.24005725 331.37366433 -21.375 315.375 C-8.97611532 304.80545896 0.00619752 291.9037865 1.6328125 275.35546875 C2.31994222 260.06776101 -2.81943261 247.91580908 -10.75 235.25 C-10.09 234.92 -9.43 234.59 -8.75 234.25 C7.10454087 245.03236381 18.57807616 256.62588222 23.5625 275.8125 C26.52368289 291.91213511 21.70785703 307.1508394 12.75390625 320.4765625 C11.61855372 322.09114315 10.43987342 323.67516753 9.25 325.25 C10.13300781 325.53230469 11.01601563 325.81460937 11.92578125 326.10546875 C14.86473688 327.11735359 17.61015071 328.28037853 20.4375 329.5625 C50.14503768 342.00506225 83.1545115 342.46723333 113.25 331.25 C126.19918589 325.93572268 137.34450989 316.96868901 143.2421875 304.08203125 C148.02327969 291.94716392 146.52103085 280.2919757 142.25 268.25 C138.95476926 261.12496113 134.97901526 255.55981902 129.25 250.25 C129.25 249.59 129.25 248.93 129.25 248.25 C128.65541992 247.97639648 128.06083984 247.70279297 127.44824219 247.42089844 C125.32836591 246.29174177 123.83873102 245.13215167 122.078125 243.515625 C117.97941954 239.92217973 113.57284755 236.95483893 109 234 C108.12883545 233.43498779 107.2576709 232.86997559 106.36010742 232.2878418 C99.0632295 227.62786648 91.53498982 223.58897134 83.83984375 219.63671875 C50.83750161 202.63129693 20.09282142 180.41436963 7.50390625 144.09765625 C3.82819034 130.89042873 5.49954923 115.67821911 12.1875 103.8125 C14.25 101.25 14.25 101.25 16.82421875 98.62109375 C19.93649416 94.88556422 19.95721445 91.4605919 20.125 86.75 C20.94049579 75.75711676 24.6026976 65.34967568 33.1328125 57.82421875 C46.21623482 48.09613906 61.00266882 41.3954191 77.25 39.25 C79.84463682 41.84463682 79.16489916 47.80341595 79.25 51.25 C78.58695721 62.73269557 74.2731664 73.53384022 65.69140625 81.3828125 C55.66271849 89.0527529 43.70172367 94.36157612 31.66796875 98.0390625 C27.90001731 99.19950766 26.30452609 100.18149287 23.8125 103.3125 C21.05902573 109.15134053 20.504713 115.51134392 22.125 121.75 C26.10177585 131.75380058 34.24744741 137.66519357 43.79296875 141.84375 C44.93378906 142.3078125 46.07460938 142.771875 47.25 143.25 C48.57451172 143.79140625 48.57451172 143.79140625 49.92578125 144.34375 C67.13727348 150.12552655 87.22647829 146.07097419 103.0625 138.25 C107.40906637 136.07750777 110.87116407 133.77848134 114.25 130.25 C114.91 130.25 115.57 130.25 116.25 130.25 C116.65605469 129.39728516 116.65605469 129.39728516 117.0703125 128.52734375 C118.28761757 126.17738066 119.68164599 124.02988064 121.125 121.8125 C129.04777248 108.45253072 130.39651486 93.15754517 127.25 78.0625 C123.17205388 64.56374317 116.32668705 53.96264489 106.25 44.25 C105.54359375 43.52425781 104.8371875 42.79851562 104.109375 42.05078125 C80.68983554 19.30164845 39.86882864 10.22889139 8.359375 10.046875 C7.13168648 10.03628555 7.13168648 10.03628555 5.87919617 10.02548218 C-19.0946488 9.74253799 -19.0946488 9.74253799 -43.75 13.25 C-45.11318359 13.54801514 -45.11318359 13.54801514 -46.50390625 13.85205078 C-72.16164317 19.6146818 -95.45643192 29.38784105 -115.75 46.25 C-117.07451172 47.32701172 -117.07451172 47.32701172 -118.42578125 48.42578125 C-134.38023155 61.99822964 -143.9927697 80.37453662 -149.75 100.25 C-150.41 99.92 -151.07 99.59 -151.75 99.25 C-152.94331524 81.74804319 -142.6573875 64.16712389 -131.75 51.25 C-130.99074219 50.32832031 -130.23148437 49.40664062 -129.44921875 48.45703125 C-103.53245734 18.38340795 -61.44329034 3.95621811 -22.83374023 0.42871094 C-15.23160084 -0.01185323 -7.61274688 0.00502065 0 0 Z M-158.75 152.25 C-164.32069409 159.0429018 -167.14846827 165.7165044 -166.75 174.5625 C-165.43436449 183.19730318 -160.96219168 191.34940573 -154.078125 196.72265625 C-139.55897725 206.24780184 -123.34338729 208.68276041 -106.31640625 205.52734375 C-98.6515817 203.85219648 -91.48193234 201.33439373 -84.75 197.25 C-83.821875 196.693125 -82.89375 196.13625 -81.9375 195.5625 C-77.94392697 191.34072279 -75.02770831 186.46011981 -74.51953125 180.5859375 C-75.0045844 173.11837508 -78.04685389 168.71633962 -83.375 163.625 C-94.61325646 154.26667247 -109.71973195 153.78746369 -123.75 154.25 C-107.59631211 150.41692152 -89.99346922 150.80183853 -75.1875 159 C-69.40441978 162.86512264 -63.64206855 168.33836052 -61.1875 175.01171875 C-59.39107519 184.20235637 -59.84698869 193.17316441 -64.75 201.25 C-55.40178687 198.78311042 -48.32240838 194.2105834 -42.75 186.25 C-39.57990269 180.11432778 -38.70182285 174.29466097 -40.44140625 167.58203125 C-44.70371227 154.65244185 -53.54405898 145.56049283 -65.625 139.4375 C-93.69176525 125.80248193 -136.44416186 128.68979933 -158.75 152.25 Z " fill="#18AFA8" transform="translate(550.75,139.75)"/>
<path d="M0 0 C91.95587366 -2.66024707 184.58789866 32.80670312 266.91601562 106.06640625 C269.2831181 108.36823936 271.60701956 110.70660098 273.91601562 113.06640625 C276.56985223 115.73375985 279.23822841 118.38443657 281.93164062 121.01171875 C287.90688349 126.86758531 293.55723319 132.78242281 298.75976562 139.3515625 C300.97974754 142.14664843 303.28500947 144.85270019 305.60351562 147.56640625 C360.41461312 213.40760077 392.71526653 296.66832578 403.91601562 381.06640625 C404.08536621 382.32549805 404.2547168 383.58458984 404.42919922 384.88183594 C405.77739274 395.32209599 406.45313486 405.74821209 406.92138672 416.26171875 C407.04184525 418.95998977 407.17159949 421.65769745 407.30273438 424.35546875 C407.38530275 426.1106519 407.46735248 427.86585954 407.54882812 429.62109375 C407.6050383 430.80117508 407.6050383 430.80117508 407.66238403 432.00509644 C407.92744366 438.04360767 407.91601562 444.00482516 407.91601562 450.06640625 C399.33601562 450.06640625 390.75601563 450.06640625 381.91601562 450.06640625 C381.3273039 443.59057725 380.77303443 437.23839877 380.55664062 430.76171875 C379.29607815 398.32599051 375.6365962 366.64973833 367.91601562 335.06640625 C367.65594727 333.99455078 367.39587891 332.92269531 367.12792969 331.81835938 C359.31559447 300.12915629 348.16096114 268.95751788 332.94921875 240.03857422 C331.81289425 237.86956918 330.70021191 235.68921837 329.58789062 233.5078125 C317.85970189 210.66490234 303.8889831 189.17126983 287.91601562 169.06640625 C286.95695313 167.83470703 286.95695313 167.83470703 285.97851562 166.578125 C283.98964061 164.04645285 281.96202615 161.5521455 279.91601562 159.06640625 C279.31007568 158.32293945 279.31007568 158.32293945 278.69189453 157.56445312 C271.22242579 148.460606 263.09215069 140.03126288 254.79101562 131.69140625 C254.28626709 131.18148132 253.78151855 130.6715564 253.26147461 130.1461792 C246.48211608 123.31205966 239.44659339 117.0798905 231.91601562 111.06640625 C230.80244758 110.11991857 229.69440172 109.16683354 228.59570312 108.203125 C220.14775136 100.82587465 211.20257301 94.34598673 201.91601562 88.06640625 C201.21428223 87.59170898 200.51254883 87.11701172 199.78955078 86.62792969 C123.10228417 35.12341597 30.54345096 16.42967451 -60.20361328 33.65869141 C-111.29408006 43.7296007 -161.39142574 66.45364736 -202.29003906 98.65771484 C-204.0974893 100.07701096 -205.92051416 101.47387656 -207.74804688 102.8671875 C-214.6128681 108.13355494 -221.10733791 113.67027795 -227.41992188 119.5859375 C-229.60149406 121.61716674 -231.81345317 123.57442191 -234.08398438 125.50390625 C-241.70304249 132.1208753 -248.85718553 139.41266448 -255.39257812 147.09765625 C-257.3226628 149.34422132 -259.32816577 151.51224529 -261.33398438 153.69140625 C-281.77025163 176.40604114 -298.29728615 202.43673081 -313.08398438 229.06640625 C-313.48858887 229.78763672 -313.89319336 230.50886719 -314.31005859 231.25195312 C-330.66572928 260.51779287 -342.51342949 292.70874514 -351.08398438 325.06640625 C-351.33986328 326.01628418 -351.59574219 326.96616211 -351.859375 327.94482422 C-362.42806545 367.65768192 -366.04998361 408.1199761 -367.08398438 449.06640625 C-375.66398437 449.06640625 -384.24398437 449.06640625 -393.08398438 449.06640625 C-394.77236239 359.64490379 -371.70010286 267.63860432 -323.08398438 192.06640625 C-322.52855957 191.20225098 -321.97313477 190.3380957 -321.40087891 189.44775391 C-314.18138872 178.28926155 -306.64054785 167.42161856 -298.50878906 156.90869141 C-297.09091443 155.07536688 -295.6848597 153.23339753 -294.27929688 151.390625 C-289.07767465 144.62108914 -283.63285099 138.20277654 -277.78710938 131.98046875 C-275.76142282 129.79670839 -273.80586469 127.59275379 -271.86523438 125.3359375 C-267.56041802 120.39579285 -262.96790783 115.75888519 -258.33398438 111.12890625 C-257.00500122 109.80004395 -257.00500122 109.80004395 -255.64916992 108.44433594 C-250.42790766 103.26855088 -245.18506334 98.37079084 -239.37695312 93.859375 C-237.05306992 92.04223294 -234.88619614 90.11849474 -232.70898438 88.12890625 C-169.74476405 31.81583596 -83.40062308 2.65756437 0 0 Z " fill="#18B0A9" transform="translate(570.083984375,-0.06640625)"/>
<path d="M0 0 C78.42070779 -2.10055467 156.76045263 25.04994972 217.8125 74.06640625 C218.8025 74.8553125 219.7925 75.64421875 220.8125 76.45703125 C223.50383017 78.63200156 226.15992736 80.84439613 228.8125 83.06640625 C230.30136719 84.27683594 230.30136719 84.27683594 231.8203125 85.51171875 C239.65895802 91.96790794 246.93001184 98.97048766 254.125 106.12890625 C255.04385986 107.03858154 255.96271973 107.94825684 256.90942383 108.88549805 C262.2273151 114.22739785 267.15561446 119.73511516 271.84716797 125.63574219 C273.69770184 127.92442731 275.62430705 130.09641487 277.625 132.25390625 C292.86401264 149.29635234 305.53156863 169.2359133 316.8125 189.06640625 C317.26302734 189.8553125 317.71355469 190.64421875 318.17773438 191.45703125 C356.49354642 258.98289494 373.20618391 333.96323385 374.8125 411.06640625 C370.1925 411.06640625 365.5725 411.06640625 360.8125 411.06640625 C360.71453125 408.77832031 360.6165625 406.49023438 360.515625 404.1328125 C356.7702484 321.31356796 336.20902304 238.66474471 287.8125 170.06640625 C287.33312988 169.38626465 286.85375977 168.70612305 286.35986328 168.00537109 C279.82115228 158.75892997 273.16129711 149.69163861 265.8125 141.06640625 C264.82146604 139.88944798 263.83059074 138.7123561 262.83984375 137.53515625 C258.17684264 132.02064429 253.52741724 126.58041704 248.31640625 121.5703125 C246.72440589 119.97831214 245.30657324 118.30338178 243.875 116.56640625 C241.23658705 113.43888803 238.36463979 110.83244335 235.24609375 108.19140625 C233.37743219 106.55970177 231.57552189 104.90571605 229.78515625 103.19140625 C220.96172546 94.75863315 211.66222163 87.26690761 201.8125 80.06640625 C201.09626465 79.54127441 200.3800293 79.01614258 199.64208984 78.47509766 C190.62280746 71.89654269 181.44531259 65.73301671 171.7578125 60.18164062 C170.43429673 59.42287807 169.11408869 58.6583229 167.796875 57.88867188 C132.83193564 37.48150332 94.73540088 24.46777473 54.8125 18.06640625 C53.79124023 17.90124512 52.76998047 17.73608398 51.71777344 17.56591797 C21.40835187 12.90330094 -10.9336666 13.1806052 -41.1875 18.06640625 C-42.26306152 18.2380127 -43.33862305 18.40961914 -44.44677734 18.58642578 C-60.38948453 21.21418971 -75.81169922 25.1255272 -91.1875 30.06640625 C-92.06631836 30.34742187 -92.94513672 30.6284375 -93.85058594 30.91796875 C-106.7100179 35.08596336 -118.99089808 40.2529617 -131.1875 46.06640625 C-132.44095215 46.66026123 -132.44095215 46.66026123 -133.71972656 47.26611328 C-162.83164142 61.1499988 -189.21942888 79.52091436 -213.1875 101.06640625 C-213.87972656 101.66710937 -214.57195312 102.2678125 -215.28515625 102.88671875 C-226.75835347 112.96167992 -237.9358343 123.71487574 -247.36328125 135.74609375 C-249.00417151 137.83322183 -250.71277438 139.79262778 -252.5 141.75390625 C-292.43734776 187.18721929 -318.36086143 246.063851 -333.1875 304.06640625 C-333.43483887 305.02579102 -333.68217773 305.98517578 -333.93701172 306.97363281 C-341.38349588 336.30246907 -344.93565291 366.57162287 -345.84667969 396.77124023 C-345.87793945 397.76583252 -345.90919922 398.7604248 -345.94140625 399.78515625 C-345.96533447 400.66107422 -345.9892627 401.53699219 -346.01391602 402.43945312 C-346.20526636 405.3352755 -346.71039153 408.20375544 -347.1875 411.06640625 C-351.4775 411.06640625 -355.7675 411.06640625 -360.1875 411.06640625 C-362.67909003 315.27861181 -330.10506491 214.0978749 -264.68847656 133.85546875 C-263.27818293 132.17449416 -261.88326271 130.48204147 -260.4921875 128.78515625 C-245.42892895 110.53279147 -228.7099324 93.79724807 -210.1875 79.06640625 C-209.12978212 78.18436006 -208.07388633 77.30012568 -207.01953125 76.4140625 C-149.09141096 28.20376734 -74.89722977 2.2736659 0 0 Z " fill="#18AFA8" transform="translate(570.1875,38.93359375)"/>
<path d="M0 0 C3.82906658 3.24805648 6.73675543 6.13547203 7.6328125 11.23828125 C7.78064733 16.134223 7.29468353 19.63951168 4.13671875 23.48828125 C-1.10837161 28.06680804 -7.3092848 31.09034753 -14.26171875 31.33984375 C-16.9159158 31.58164088 -18.31779229 31.78510886 -20.40429688 33.47167969 C-21.95215923 35.34765553 -23.28978374 37.27212755 -24.61328125 39.3125 C-25.64282246 40.78895344 -26.67410565 42.26419354 -27.70703125 43.73828125 C-28.21492187 44.48029785 -28.7228125 45.22231445 -29.24609375 45.98681641 C-31.412744 49.09145039 -33.74859352 52.04511964 -36.11328125 55 C-37.01115035 56.13483657 -37.90826631 57.27026936 -38.8046875 58.40625 C-39.2702002 58.99535156 -39.73571289 59.58445312 -40.21533203 60.19140625 C-43.17524023 63.9494173 -46.11270679 67.72491145 -49.05078125 71.5 C-49.62554199 72.23718262 -50.20030273 72.97436523 -50.79248047 73.73388672 C-51.34822754 74.44818848 -51.90397461 75.16249023 -52.4765625 75.8984375 C-52.96165283 76.52153809 -53.44674316 77.14463867 -53.9465332 77.78662109 C-56.57114397 81.21195451 -59.14912373 84.67278998 -61.73828125 88.125 C-19.16828125 88.62 -19.16828125 88.62 24.26171875 89.125 C24.26171875 116.56741903 19.28292816 142.31290759 3.26171875 165.125 C2.59398437 166.07890625 1.92625 167.0328125 1.23828125 168.015625 C-2.9139033 173.74174232 -7.34928526 179.0903581 -12.11328125 184.3125 C-12.62528076 184.87759277 -13.13728027 185.44268555 -13.66479492 186.02490234 C-15.99209467 188.5239799 -17.44705245 190.02792373 -20.73828125 191.125 C-20.70347656 190.43277344 -20.66867187 189.74054688 -20.6328125 189.02734375 C-20.11146306 170.18428544 -25.95247805 153.73174596 -37.73828125 139.125 C-38.21910156 138.49207031 -38.69992187 137.85914063 -39.1953125 137.20703125 C-49.92666102 123.69233585 -66.64707527 114.92128747 -81.73828125 107.125 C-81.73828125 106.795 -81.73828125 106.465 -81.73828125 106.125 C-64.90828125 104.64 -64.90828125 104.64 -47.73828125 103.125 C-50.40792969 103.33640625 -53.07757812 103.5478125 -55.828125 103.765625 C-77.14174517 105.19538864 -92.45150774 105.12507992 -111.09277344 93.65039062 C-115.30351398 91.22249224 -119.7470999 89.54388372 -124.30078125 87.875 C-125.06447021 87.58818359 -125.82815918 87.30136719 -126.61499023 87.00585938 C-128.31912253 86.36910189 -130.02808956 85.74529941 -131.73828125 85.125 C-131.73828125 81.125 -131.73828125 81.125 -129.24609375 78.42578125 C-128.12847594 77.41849561 -127.00014464 76.42301283 -125.86328125 75.4375 C-125.27264893 74.91003174 -124.6820166 74.38256348 -124.07348633 73.83911133 C-122.87055966 72.76614298 -121.66360811 71.69766966 -120.45263672 70.63378906 C-118.08727942 68.55205906 -115.75858074 66.43058004 -113.42578125 64.3125 C-110.59082857 61.76877841 -107.73883785 59.24766005 -104.86328125 56.75 C-100.89575401 53.29648439 -97.02980485 49.7349606 -93.16064453 46.17236328 C-89.77383565 43.05914956 -86.33930581 40.01255462 -82.86328125 37 C-79.59100738 34.11269952 -76.38956614 31.14830643 -73.18212891 28.18945312 C-69.60813364 24.89950663 -65.97397543 21.69520606 -62.26171875 18.5625 C-60.49485833 17.00305417 -60.49485833 17.00305417 -58.73828125 14.125 C-59.23328125 12.64 -59.23328125 12.64 -59.73828125 11.125 C-60.10671421 6.63011786 -60.18957695 4.10607761 -58.30078125 0 C-42.78133898 -17.41205718 -17.35141706 -11.88114149 0 0 Z M-32.73828125 101.125 C-32.73828125 101.455 -32.73828125 101.785 -32.73828125 102.125 C-31.08828125 102.125 -29.43828125 102.125 -27.73828125 102.125 C-27.73828125 101.795 -27.73828125 101.465 -27.73828125 101.125 C-29.38828125 101.125 -31.03828125 101.125 -32.73828125 101.125 Z " fill="#18B0A9" transform="translate(773.73828125,241.875)"/>
<path d="M0 0 C19.47 0 38.94 0 59 0 C59 1.32 59 2.64 59 4 C58.45730469 4.21914063 57.91460938 4.43828125 57.35546875 4.6640625 C56.64003906 4.98117187 55.92460938 5.29828125 55.1875 5.625 C54.47980469 5.92664063 53.77210938 6.22828125 53.04296875 6.5390625 C50.08401832 8.65502322 49.34433085 10.604583 48 14 C47.5455443 17.4025617 47.5115739 20.78135739 47.48828125 24.2109375 C47.47164429 25.06985596 47.45500732 25.92877441 47.43786621 26.8137207 C47.38034036 30.0005686 47.34788247 33.18782934 47.3125 36.375 C47.209375 43.51125 47.10625 50.6475 47 58 C65.81 58 84.62 58 104 58 C103.938125 50.348125 103.87625 42.69625 103.8125 34.8125 C103.80581299 32.40428955 103.79912598 29.9960791 103.79223633 27.51489258 C103.76578509 25.5997442 103.73750677 23.68461981 103.70703125 21.76953125 C103.71101929 20.78029663 103.71500732 19.79106201 103.71911621 18.77185059 C103.59807613 12.89773263 103.59807613 12.89773263 100.6315918 7.90893555 C98.12373398 6.08975563 95.94772459 4.92642773 93 4 C93 2.68 93 1.36 93 0 C112.47 0 131.94 0 152 0 C152 1.32 152 2.64 152 4 C151.37351562 4.25394531 150.74703125 4.50789062 150.1015625 4.76953125 C149.28429687 5.11371094 148.46703125 5.45789063 147.625 5.8125 C146.40683594 6.31716797 146.40683594 6.31716797 145.1640625 6.83203125 C142.69852542 7.94439082 142.69852542 7.94439082 141 11 C140.70328956 12.99898876 140.70328956 12.99898876 140.75276184 15.21289062 C140.74856735 16.07092285 140.74437286 16.92895508 140.74005127 17.81298828 C140.74567078 18.75126465 140.75129028 19.68954102 140.75708008 20.65625 C140.75423256 22.1419751 140.75423256 22.1419751 140.75132751 23.65771484 C140.74761659 26.93855655 140.75832871 30.21917789 140.76953125 33.5 C140.77072301 35.77539036 140.77117622 38.05078122 140.7709198 40.32617188 C140.77248523 45.09768752 140.78077939 49.86912821 140.79418945 54.640625 C140.81117932 60.76430277 140.81500381 66.8878981 140.81424427 73.01159668 C140.81451589 77.71094554 140.81999586 82.41027629 140.82724571 87.10961914 C140.83043331 89.36791853 140.8324 91.62621997 140.83313942 93.88452148 C140.835302 97.03763338 140.84404456 100.190657 140.85473633 103.34375 C140.85428314 104.28202637 140.85382996 105.22030273 140.85336304 106.18701172 C140.85976051 107.47406006 140.85976051 107.47406006 140.86628723 108.78710938 C140.86796308 109.53263062 140.86963892 110.27815186 140.87136555 111.04626465 C140.93143206 113.2163261 140.93143206 113.2163261 142 116 C144.28697319 116.91039125 146.58315365 117.45841999 148.96875 118.05859375 C151 119 151 119 151.84375 121.03515625 C151.8953125 121.68355469 151.946875 122.33195313 152 123 C151 124 151 124 148.67784119 124.12025452 C147.64969803 124.11803391 146.62155487 124.11581329 145.56225586 124.11352539 C144.40112778 124.11344986 143.23999969 124.11337433 142.04368591 124.11329651 C140.14840904 124.10555458 140.14840904 124.10555458 138.21484375 124.09765625 C136.92888809 124.0962413 135.64293243 124.09482635 134.31800842 124.09336853 C130.89356557 124.08954418 127.46916491 124.07971462 124.04473877 124.06866455 C120.55261811 124.05844864 117.06049066 124.05387053 113.56835938 124.04882812 C106.71222222 124.03809227 99.85611313 124.02101684 93 124 C93 122.35 93 120.7 93 119 C93.9075 118.7525 94.815 118.505 95.75 118.25 C99.40253057 116.84518055 100.73455038 116.17934574 103 113 C103.62381667 109.5232591 103.60528748 106.07206991 103.609375 102.546875 C103.62500488 101.64662598 103.64063477 100.74637695 103.65673828 99.81884766 C103.70925544 96.46283202 103.72759078 93.10635171 103.75 89.75 C103.8325 82.2425 103.915 74.735 104 67 C85.19 67 66.38 67 47 67 C47.103125 73.97125 47.20625 80.9425 47.3125 88.125 C47.33739502 90.31527832 47.36229004 92.50555664 47.38793945 94.76220703 C47.42024407 96.51076367 47.45361987 98.25930099 47.48828125 100.0078125 C47.49452515 100.90556396 47.50076904 101.80331543 47.50720215 102.72827148 C47.62463029 107.86521881 48.07816529 111.5868705 51 116 C53.91765 117.9451 55.62537285 118.45276317 59 119 C59 120.65 59 122.3 59 124 C39.53 124 20.06 124 0 124 C0 122.35 0 120.7 0 119 C1.0725 118.773125 2.145 118.54625 3.25 118.3125 C7.61339132 116.78531304 8.66327312 115.93343665 11 112 C11.56964578 108.76868661 11.52623999 105.59020261 11.48583984 102.31616211 C11.48963654 101.34650009 11.49343323 100.37683807 11.49734497 99.37779236 C11.50474558 96.17731226 11.48337576 92.97774296 11.4609375 89.77734375 C11.45855287 87.55204881 11.45764779 85.32675184 11.4581604 83.10145569 C11.45503331 78.4401487 11.43847353 73.77914949 11.41162109 69.11791992 C11.37762188 63.14006495 11.36999315 57.16254784 11.37151146 51.18460751 C11.37096791 46.59071115 11.36000337 41.9968888 11.34550858 37.40301704 C11.33914041 35.19857913 11.33520164 32.99413282 11.33372116 30.7896862 C11.32938955 27.71112627 11.31189179 24.6329261 11.29052734 21.55444336 C11.2918869 20.18518707 11.2918869 20.18518707 11.29327393 18.78826904 C11.28474396 17.94858078 11.27621399 17.10889252 11.26742554 16.24375916 C11.26407385 15.51650603 11.26072216 14.78925291 11.25726891 14.03996181 C10.9549951 11.64314274 10.26490813 10.05122304 9 8 C6.84255767 6.66653971 6.84255767 6.66653971 4.375 5.75 C3.55773437 5.41484375 2.74046875 5.0796875 1.8984375 4.734375 C1.27195312 4.49203125 0.64546875 4.2496875 0 4 C0 2.68 0 1.36 0 0 Z " fill="#3AB270" transform="translate(463,530)"/>
<path d="M0 0 C8.40753958 -0.07025888 16.8149516 -0.12318883 25.22271442 -0.15543652 C29.12897094 -0.17093258 33.03502314 -0.19186703 36.94116211 -0.22631836 C59.64144657 -0.42103335 80.86782981 -0.36644224 102 9 C102.99515625 9.44085937 103.9903125 9.88171875 105.015625 10.3359375 C120.73984167 18.10819317 131.21764029 31.70425899 137 48 C140.23999734 59.28257487 139.04000574 73.54498808 134 84 C133.525625 84.99128906 133.05125 85.98257813 132.5625 87.00390625 C123.32587672 104.38918516 107.33189085 114.60415436 88.99121094 120.40234375 C73.72361356 124.9848693 57.80300478 124.71002191 42 125 C42.99 125.66 43.98 126.32 45 127 C43.37509046 127.02698189 41.75005367 127.04638757 40.125 127.0625 C38.76761719 127.07990234 38.76761719 127.07990234 37.3828125 127.09765625 C35 127 35 127 33 126 C33 125.34 33 124.68 33 124 C22.11 124 11.22 124 0 124 C0.33 122.35 0.66 120.7 1 119 C1.63808594 118.81824219 2.27617187 118.63648438 2.93359375 118.44921875 C3.75988281 118.19785156 4.58617187 117.94648437 5.4375 117.6875 C6.26121094 117.44386719 7.08492187 117.20023438 7.93359375 116.94921875 C8.61550781 116.63597656 9.29742187 116.32273437 10 116 C10.91299677 113.26100969 11.13273356 111.6225898 11.15390015 108.80056763 C11.16250061 107.94542572 11.17110107 107.09028381 11.17996216 106.20922852 C11.18422211 105.27409424 11.18848206 104.33895996 11.19287109 103.37548828 C11.20513733 101.89458206 11.20513733 101.89458206 11.21765137 100.38375854 C11.24248995 97.11261605 11.25901548 93.84151683 11.2734375 90.5703125 C11.27876118 89.45398312 11.28408485 88.33765373 11.28956985 87.18749619 C11.31629182 81.2814172 11.3356718 75.37535931 11.35009766 69.46923828 C11.36676399 63.36346706 11.41156161 57.25823365 11.4624691 51.15266609 C11.49608509 46.46181603 11.50766878 41.7710947 11.51332474 37.08013535 C11.52005032 34.82902785 11.53530607 32.5779292 11.55921555 30.32693863 C11.5907545 27.17860947 11.59092069 24.03174575 11.58349609 20.88330078 C11.59990143 19.95221497 11.61630676 19.02112915 11.63320923 18.06182861 C11.58982605 13.5726149 11.47909266 11.62434377 8.67056274 7.96432495 C5.83515975 5.87875222 3.39684676 4.8689608 0 4 C0 2.68 0 1.36 0 0 Z M48 8 C48 43.31 48 78.62 48 115 C63.11912784 116.25992732 74.21903313 115.47373097 86.25 105.8125 C97.76236248 95.066081 101.10685251 79.48545756 102.1875 64.37890625 C102.57519829 49.62213997 99.64097435 33.33177143 89.81640625 21.89453125 C81.94694267 13.68659611 74.32181605 9.5616298 63 8 C58.05 8 53.1 8 48 8 Z " fill="#3BB26F" transform="translate(183,530)"/>
<path d="M0 0 C8.49391104 -0.04667042 16.98776706 -0.08204331 25.48177528 -0.10362434 C29.42734992 -0.1139905 33.3728358 -0.12801586 37.31835938 -0.15087891 C41.13742296 -0.17286661 44.95640206 -0.18462226 48.77552414 -0.18975449 C50.22091372 -0.19340435 51.66629952 -0.20052896 53.11165237 -0.21146011 C77.6577242 -0.38944562 102.67594587 4.35327294 120.98974609 21.79370117 C131.85218 32.66173619 138.19145371 45.63038687 138.25 61.0625 C138.22246941 79.44113777 131.1022433 91.8977567 118.2890625 104.7109375 C110.7286821 111.68123943 101.64968292 116.04617222 92 119.3125 C91.28932373 119.55484375 90.57864746 119.7971875 89.84643555 120.046875 C78.12328127 123.80125393 66.48987754 124.28146077 54.296875 124.1953125 C52.72219016 124.1915728 51.14750296 124.18873036 49.57281494 124.18673706 C45.46951641 124.17917585 41.36636412 124.1595939 37.26312256 124.1373291 C33.05954973 124.11670684 28.8559528 124.10770066 24.65234375 124.09765625 C16.43482944 124.07633928 8.21743301 124.0422966 0 124 C0 122.35 0 120.7 0 119 C1.093125 118.690625 2.18625 118.38125 3.3125 118.0625 C5.55407994 117.41662103 7.7869351 116.7376883 10 116 C10.91299677 113.26100969 11.13273356 111.6225898 11.15390015 108.80056763 C11.16250061 107.94542572 11.17110107 107.09028381 11.17996216 106.20922852 C11.18422211 105.27409424 11.18848206 104.33895996 11.19287109 103.37548828 C11.20513733 101.89458206 11.20513733 101.89458206 11.21765137 100.38375854 C11.24248995 97.11261605 11.25901548 93.84151683 11.2734375 90.5703125 C11.27876118 89.45398312 11.28408485 88.33765373 11.28956985 87.18749619 C11.31629182 81.2814172 11.3356718 75.37535931 11.35009766 69.46923828 C11.36676399 63.36346706 11.41156161 57.25823365 11.4624691 51.15266609 C11.49608509 46.46181603 11.50766878 41.7710947 11.51332474 37.08013535 C11.52005032 34.82902785 11.53530607 32.5779292 11.55921555 30.32693863 C11.5907545 27.17860947 11.59092069 24.03174575 11.58349609 20.88330078 C11.59990143 19.95221497 11.61630676 19.02112915 11.63320923 18.06182861 C11.58982605 13.5726149 11.47909266 11.62434377 8.67056274 7.96432495 C5.83515975 5.87875222 3.39684676 4.8689608 0 4 C0 2.68 0 1.36 0 0 Z M47 8 C47 43.31 47 78.62 47 115 C62.64336023 116.2033354 73.97724058 115.66789772 86.25 105.8125 C97.34071959 95.43731071 101.08666642 80.05457831 101.94091797 65.36523438 C102.36406075 48.42553494 98.86153219 31.94740877 87.26171875 19.0703125 C75.83101622 8.04193283 62.3110711 8 47 8 Z " fill="#3BB270" transform="translate(323,530)"/>
<path d="M0 0 C19.8 0 39.6 0 60 0 C60 1.32 60 2.64 60 4 C59.37351562 4.25394531 58.74703125 4.50789062 58.1015625 4.76953125 C57.28429687 5.11371094 56.46703125 5.45789063 55.625 5.8125 C54.81289063 6.14894531 54.00078125 6.48539063 53.1640625 6.83203125 C50.69852542 7.94439082 50.69852542 7.94439082 49 11 C48.71013555 13.40443838 48.71013555 13.40443838 48.77294922 16.11401367 C48.77317581 17.67529243 48.77317581 17.67529243 48.77340698 19.26811218 C48.78372955 20.39006485 48.79405212 21.51201752 48.8046875 22.66796875 C48.80893234 24.39289299 48.80893234 24.39289299 48.81326294 26.15266418 C48.82447167 29.83104796 48.84957776 33.50918962 48.875 37.1875 C48.88502889 39.67903295 48.8941549 42.1705697 48.90234375 44.66210938 C48.92441327 50.77482241 48.95789776 56.88739391 49 63 C49.4125 62.58226318 49.825 62.16452637 50.25 61.73413086 C53.5517913 58.39594984 56.86179355 55.0660766 60.18554688 51.74975586 C61.13439758 50.80222694 61.13439758 50.80222694 62.10241699 49.83555603 C64.59502507 47.42442473 67.19187627 45.15337504 69.8359375 42.91064453 C74.92694437 38.41580927 79.73503956 33.60885665 84.56640625 28.83862305 C85.86366159 27.56315242 87.16715377 26.29399656 88.4765625 25.03100586 C90.3844083 23.18990616 92.27195626 21.33000417 94.15625 19.46484375 C95.03730408 18.62553566 95.03730408 18.62553566 95.93615723 17.76927185 C99.93107038 13.75363179 100 13.11057255 100 7 C94.06 5.515 94.06 5.515 88 4 C88 2.68 88 1.36 88 0 C106.81 0 125.62 0 145 0 C145 1.32 145 2.64 145 4 C143.91203125 4.23074219 142.8240625 4.46148438 141.703125 4.69921875 C119.51284397 9.55524258 107.28091271 19.40033161 91.625 35.3125 C89.57842648 37.38675594 87.53036226 39.45948569 85.4793396 41.52934265 C84.21109458 42.80978559 82.94553229 44.09289276 81.68301392 45.37898254 C81.11166718 45.9568602 80.54032043 46.53473785 79.95166016 47.13012695 C79.45252106 47.63751907 78.95338196 48.14491119 78.43911743 48.66767883 C77 50 77 50 74 52 C75.48848812 55.39344442 77.4326862 57.78229967 79.9375 60.5 C80.74316406 61.37914062 81.54882812 62.25828125 82.37890625 63.1640625 C83.24386719 64.09992188 84.10882812 65.03578125 85 66 C86.33485229 67.45870456 87.66969631 68.91741687 89.00390625 70.37670898 C90.86556175 72.41107148 92.73148191 74.44150242 94.59716797 76.47216797 C95.97356272 77.97120702 97.34841739 79.47164076 98.72265625 80.97265625 C99.6275967 81.96094434 100.53254462 82.94922558 101.4375 83.9375 C102.10857788 84.67045288 102.10857788 84.67045288 102.79321289 85.41821289 C105.23744078 88.08531606 107.68856479 90.74575175 110.1484375 93.3984375 C110.67268311 93.96433594 111.19692871 94.53023437 111.73706055 95.11328125 C112.77885037 96.23692253 113.82196133 97.3593405 114.86645508 98.48046875 C117.4064881 101.2191566 119.82489537 103.99595774 122.125 106.9375 C128.59992039 114.63844081 138.34848202 117.84181784 148 119 C148 120.65 148 122.3 148 124 C127.54 124 107.08 124 86 124 C86 122.35 86 120.7 86 119 C86.639375 118.896875 87.27875 118.79375 87.9375 118.6875 C88.618125 118.460625 89.29875 118.23375 90 118 C90.495 116.515 90.495 116.515 91 115 C87.98464847 109.45695487 83.53866968 105.14089541 79.1875 100.625 C74.55525642 95.78832877 69.99909989 90.91967521 65.61401367 85.85693359 C63.30434396 83.19964304 60.93567709 80.60074202 58.5625 78 C57.69753906 77.05125 56.83257813 76.1025 55.94140625 75.125 C54.98041016 74.073125 54.98041016 74.073125 54 73 C51.37704417 74.48099437 51.37704417 74.48099437 49 77 C48.50245768 79.82838853 48.3197652 82.04782868 48.37109375 84.87109375 C48.36868179 85.63043716 48.36626984 86.38978058 48.36378479 87.1721344 C48.36476243 88.77504711 48.37813676 90.37799391 48.40307617 91.98071289 C48.43734543 94.42646818 48.42374553 96.86860003 48.40429688 99.31445312 C48.4111971 100.8750153 48.42087109 102.43556818 48.43359375 103.99609375 C48.42863388 104.72332138 48.42367401 105.45054901 48.41856384 106.19981384 C48.5307432 111.06939655 49.55032974 113.57254918 53 117 C54.85041705 118.18256497 54.85041705 118.18256497 56.75 118.8125 C58.35875 119.4003125 58.35875 119.4003125 60 120 C60 121.32 60 122.64 60 124 C40.53 124 21.06 124 1 124 C0.67 122.68 0.34 121.36 0 120 C0.61488281 119.78085937 1.22976563 119.56171875 1.86328125 119.3359375 C2.67152344 119.01882813 3.47976563 118.70171875 4.3125 118.375 C5.11300781 118.07335937 5.91351562 117.77171875 6.73828125 117.4609375 C9.9194733 115.40607424 10.6067018 113.52562285 12 110 C12.42517889 106.83330733 12.42045358 103.70138093 12.40405273 100.50976562 C12.41091599 99.57243088 12.41777924 98.63509613 12.42485046 97.6693573 C12.44310098 94.58149931 12.4392838 91.49415017 12.43359375 88.40625 C12.43815598 86.25443354 12.44346168 84.10261855 12.44947815 81.95080566 C12.45840553 77.44517083 12.45598981 72.93971328 12.44604492 68.43408203 C12.4345487 62.66369208 12.45477902 56.89391347 12.48396206 51.12360382 C12.50231677 46.68145876 12.50203314 42.23946045 12.49632454 37.79728699 C12.49617127 35.66984702 12.50221987 33.54239714 12.51461601 31.41499329 C12.52951218 28.43968431 12.51885906 25.46550817 12.50170898 22.49023438 C12.51137695 21.61421066 12.52104492 20.73818695 12.53100586 19.83561707 C12.46572156 14.42022925 11.62685464 11.28594534 8 7 C5.93700546 5.69211943 5.93700546 5.69211943 3.75 5.125 C2.5125 4.75375 1.275 4.3825 0 4 C0 2.68 0 1.36 0 0 Z " fill="#3BB16F" transform="translate(802,530)"/>
<path d="M0 0 C1.17675293 0.00499512 2.35350586 0.00999023 3.56591797 0.01513672 C18.73199036 0.31650447 32.44762151 3.67934067 43.3125 14.875 C46.36393925 18.73617872 46.96864214 21.58152248 46.8125 26.5 C45.02280432 30.73018978 42.80074461 32.8011128 38.8125 34.875 C32.23934527 37.46738281 24.54490616 37.84096116 17.875 35.3125 C13.51272667 32.7307464 10.51181584 30.51053304 8.8125 25.625 C8.8125 20.48935151 10.59956061 16.85156104 14 13.0625 C14.598125 12.546875 15.19625 12.03125 15.8125 11.5 C7.25760629 9.05574465 -0.08024904 8.12520933 -8.1875 12.5 C-11.24584952 15.09294851 -14.0683234 17.58288192 -15.1875 21.5 C-15.1139331 26.13471473 -15.00027427 28.43323376 -12.1875 32.125 C-5.30125424 37.57661122 1.69275404 41.6144371 9.8125 44.9375 C11.18063843 45.51371094 11.18063843 45.51371094 12.57641602 46.1015625 C16.85171234 47.89525769 21.14237122 49.63965765 25.46484375 51.31640625 C39.36023784 56.74173683 55.81635622 64.0162822 62.3125 78.375 C64.75694891 85.45846973 64.9264109 92.62731572 61.90625 99.5625 C55.26769145 111.32223229 43.17933157 116.55104583 30.8125 120.5 C8.00814017 126.42225293 -24.88873311 129.85494876 -46.1875 117.5 C-48.62454288 115.57974077 -49.57815326 114.27473577 -51.1875 111.5 C-51.35356696 107.43135944 -50.49652275 105.89731496 -48 102.6875 C-44.923521 100.294683 -43.02858078 99.76798238 -39.1875 99.5 C-38.6925 100.36625 -38.1975 101.2325 -37.6875 102.125 C-32.9521684 109.08001829 -26.63613582 112.31337223 -18.52734375 114.03125 C-5.02128736 115.92683686 8.09578413 114.73997727 19.6796875 107.16015625 C24.32260051 103.54616718 26.83345789 99.89112988 27.875 94.0625 C28.13200589 89.01661772 26.95718165 85.45121917 23.8125 81.5 C14.2594821 72.05312674 -1.23700302 67.59180172 -13.65527344 63.14355469 C-26.61992524 58.49633443 -41.72118631 51.93158014 -48.89453125 39.5546875 C-51.22366686 34.05201667 -52.05563851 28.64357523 -50.4453125 22.8125 C-46.12295542 13.03503019 -38.22554578 8.55743868 -28.66796875 4.640625 C-19.03355848 1.48322006 -10.15329239 -0.05696711 0 0 Z " fill="#3BB16F" transform="translate(51.1875,529.5)"/>
<path d="M0 0 C7.61166917 13.29650118 15.22142691 26.5937132 22.75 39.9375 C28.30071847 49.77508889 33.89501712 59.58709028 39.50732422 69.38964844 C41.02994975 72.05237532 42.54868503 74.71728751 44.06640625 77.3828125 C46.55792414 81.75852841 49.06110658 86.12742592 51.56835938 90.49414062 C52.9792023 92.96359694 54.37328266 95.44195194 55.765625 97.921875 C56.63494253 99.44818681 57.50471084 100.974242 58.375 102.5 C58.75543457 103.18803711 59.13586914 103.87607422 59.52783203 104.58496094 C63.25387033 111.05641569 68.01969234 115.09153848 75 118 C78.2366963 118.70758326 78.2366963 118.70758326 81 119 C81 120.65 81 122.3 81 124 C61.2 124 41.4 124 21 124 C20.67 122.68 20.34 121.36 20 120 C21.4540625 119.4121875 21.4540625 119.4121875 22.9375 118.8125 C26.15218064 117.3491325 26.15218064 117.3491325 26.83349609 114.68408203 C27.03574269 111.42381943 26.35474348 110.04941576 24.7265625 107.2421875 C24.2315625 106.36949219 23.7365625 105.49679687 23.2265625 104.59765625 C22.69804688 103.69917969 22.16953125 102.80070313 21.625 101.875 C20.59448508 100.081802 19.56575814 98.28757496 18.5390625 96.4921875 C18.07709473 95.70183105 17.61512695 94.91147461 17.13916016 94.09716797 C16 92 16 92 15 89 C-5.79 89.33 -26.58 89.66 -48 90 C-58.4472136 107.16764723 -58.4472136 107.16764723 -58 116 C-55.4345406 118.5654594 -53.52313332 118.54046087 -50 119 C-50 120.65 -50 122.3 -50 124 C-63.53 124 -77.06 124 -91 124 C-91.33 122.68 -91.66 121.36 -92 120 C-91.05125 119.773125 -90.1025 119.54625 -89.125 119.3125 C-81.78169941 117.18877559 -75.43985111 114.38398143 -71 108 C-69.76561078 105.74162882 -68.61177612 103.50370025 -67.5 101.1875 C-66.80250209 99.76411764 -66.10455569 98.34095499 -65.40625 96.91796875 C-65.02597656 96.13856934 -64.64570312 95.35916992 -64.25390625 94.55615234 C-61.86634356 89.68898308 -59.42857821 84.84679428 -57 80 C-56.04147105 78.08343115 -55.08313832 76.16676416 -54.125 74.25 C-53.6292749 73.25911377 -53.1335498 72.26822754 -52.62280273 71.24731445 C-51.46166205 68.92381027 -50.30234199 66.59945232 -49.14477539 64.27416992 C-46.05195169 58.06728834 -42.94413056 51.87001239 -39.76351929 45.70755005 C-38.33678949 42.94073365 -36.92067084 40.16855357 -35.50561523 37.39575195 C-34.78218462 35.98477289 -34.05383946 34.57630468 -33.32104492 33.17016602 C-32.2412289 31.09516499 -31.17959142 29.01171999 -30.12109375 26.92578125 C-29.62602577 25.98983879 -29.62602577 25.98983879 -29.12095642 25.0349884 C-27.72949295 22.25455884 -26.97250718 20.36673288 -27.20727539 17.23510742 C-28.14747164 14.58419991 -29.51840839 12.38342998 -31 10 C-31 9.34 -31 8.68 -31 8 C-29.99582031 7.84144531 -28.99164062 7.68289063 -27.95703125 7.51953125 C-19.66940826 6.13215344 -12.24867649 4.25719768 -4.4765625 0.98828125 C-2 0 -2 0 0 0 Z M-19 31 C-24.69302126 41.65145913 -30.24729971 52.36981054 -35.66937256 63.16149902 C-36.30688437 64.42968212 -36.94576226 65.69717941 -37.58599854 66.96398926 C-38.49115206 68.75646424 -39.39023741 70.55199957 -40.2890625 72.34765625 C-41.07337646 73.91012085 -41.07337646 73.91012085 -41.87353516 75.50415039 C-43.1371255 77.8474415 -43.1371255 77.8474415 -43 80 C-25.84 80 -8.68 80 9 80 C7.52367432 76.3091858 6.05718046 73.14136833 4.12890625 69.7109375 C3.55938232 68.69507568 2.9898584 67.67921387 2.40307617 66.63256836 C1.49199097 65.02007202 1.49199097 65.02007202 0.5625 63.375 C-0.05842529 62.2722876 -0.67935059 61.1695752 -1.3190918 60.03344727 C-3.20756824 56.6860122 -5.10227943 53.34220204 -7 50 C-7.56686523 49.0011377 -8.13373047 48.00227539 -8.71777344 46.97314453 C-10.24358094 44.29124088 -11.77602548 41.61330394 -13.3125 38.9375 C-13.77390381 38.12909668 -14.23530762 37.32069336 -14.71069336 36.48779297 C-15.77790703 34.64132774 -16.88431668 32.81758895 -18 31 C-18.33 31 -18.66 31 -19 31 Z " fill="#3AB16F" transform="translate(1048,530)"/>
<path d="M0 0 C2.68798582 2.42351135 4.32613446 5.03848516 6.1171875 8.171875 C6.71732666 9.21682129 7.31746582 10.26176758 7.93579102 11.33837891 C8.57572998 12.46421387 9.21566895 13.59004883 9.875 14.75 C10.54902851 15.92778303 11.22343138 17.10535188 11.89819336 18.28271484 C16.68955876 26.6538802 21.42835667 35.0548946 26.15820312 43.4609375 C30.55673356 51.26149818 35.07579281 58.98796767 39.61376953 66.70800781 C42.80240071 72.15676629 45.92736974 77.63429804 48.97265625 83.1640625 C49.30471069 83.76637695 49.63676514 84.36869141 49.97888184 84.98925781 C51.5825812 87.90187182 53.17800367 90.81844271 54.76318359 93.74121094 C62.81596457 109.08704064 62.81596457 109.08704064 77 118 C80.39521568 118.85061349 80.39521568 118.85061349 83 119 C83 120.65 83 122.3 83 124 C62.87 124 42.74 124 22 124 C22 122.35 22 120.7 22 119 C23.98 118.67 25.96 118.34 28 118 C28.57882876 107.98182146 28.57882876 107.98182146 16 90 C-4.79 90 -25.58 90 -47 90 C-58.0731678 108.09149145 -58.0731678 108.09149145 -56 117 C-54.19053078 118.35444558 -54.19053078 118.35444558 -51.9375 118.875 C-51.20402344 119.09929687 -50.47054687 119.32359375 -49.71484375 119.5546875 C-49.14894531 119.70164062 -48.58304688 119.84859375 -48 120 C-48 121.32 -48 122.64 -48 124 C-61.86 124 -75.72 124 -90 124 C-90 122.35 -90 120.7 -90 119 C-89.05640625 118.88785156 -89.05640625 118.88785156 -88.09375 118.7734375 C-81.51940052 117.76352237 -76.59948589 115.93278197 -72 111 C-68.42095389 105.73160532 -65.41272882 100.16986339 -62.51342773 94.5078125 C-62.09662247 93.7001947 -61.6798172 92.8925769 -61.25038147 92.06048584 C-56.94885986 83.70866982 -52.70146847 75.32905827 -48.45874023 66.94726562 C-46.4450739 62.97367428 -44.4141323 59.0096613 -42.36791992 55.05273438 C-39.88945499 50.25944865 -37.44258425 45.45127042 -35.0174427 40.63079834 C-34.09019451 38.80080519 -33.15192661 36.97635211 -32.20248222 35.15777588 C-30.87859863 32.61669092 -29.59631876 30.05841418 -28.32202148 27.4921875 C-27.92276459 26.74805603 -27.52350769 26.00392456 -27.1121521 25.23724365 C-25.12259957 21.15871764 -25.12259957 21.15871764 -25.69072151 16.80084229 C-26.74942212 14.65984059 -26.74942212 14.65984059 -28.00821018 12.74441528 C-29 11 -29 11 -29 8 C-27.11667969 7.63648438 -27.11667969 7.63648438 -25.1953125 7.265625 C-12.2701999 4.71559469 -12.2701999 4.71559469 0 0 Z M-18 30 C-18.4846875 31.0415625 -18.969375 32.083125 -19.46875 33.15625 C-22.89107957 40.48389919 -26.35994776 47.77767413 -30 55 C-34.13387093 63.26774187 -38.06409553 71.63620299 -42 80 C-24.51 80 -7.02 80 11 80 C4.14029985 67.13477448 4.14029985 67.13477448 -3 54.4375 C-4.02604917 52.65104598 -5.05209081 50.86458763 -6.078125 49.078125 C-6.57119141 48.22154297 -7.06425781 47.36496094 -7.57226562 46.48242188 C-9.63924949 42.88852791 -11.69489009 39.28819234 -13.75 35.6875 C-14.38421875 34.57761719 -15.0184375 33.46773437 -15.671875 32.32421875 C-16.11015625 31.55722656 -16.5484375 30.79023437 -17 30 C-17.33 30 -17.66 30 -18 30 Z " fill="#3AB16F" transform="translate(713,530)"/>
<path d="M0 0 C19.47 0 38.94 0 59 0 C59 1.32 59 2.64 59 4 C58.45730469 4.23074219 57.91460937 4.46148438 57.35546875 4.69921875 C56.64003906 5.02535156 55.92460937 5.35148438 55.1875 5.6875 C54.47980469 6.00074219 53.77210938 6.31398438 53.04296875 6.63671875 C50.27515845 8.48368968 49.41520103 9.95914079 48 13 C47.5639614 16.12656681 47.59005051 19.22395634 47.61181641 22.37670898 C47.60393097 23.78249207 47.60393097 23.78249207 47.59588623 25.2166748 C47.58269905 28.30998476 47.59142065 31.40277868 47.6015625 34.49609375 C47.59954123 36.64933877 47.59662935 38.80258313 47.59286499 40.95582581 C47.58844322 45.46744304 47.59486745 49.97888201 47.60888672 54.49047852 C47.62596809 60.26865827 47.61614293 66.04641965 47.59816933 71.82458401 C47.58731884 76.27101278 47.59078385 80.7173427 47.5985527 85.16377449 C47.60055174 87.29399732 47.59810588 89.42422916 47.59111404 91.55444145 C47.58348006 94.5345009 47.59513188 97.51388706 47.61181641 100.49389648 C47.60574371 101.37149124 47.59967102 102.249086 47.59341431 103.15327454 C47.64527785 108.16335449 48.16549425 111.68687155 51 116 C53.91765 117.9451 55.62537285 118.45276317 59 119 C59 120.65 59 122.3 59 124 C39.53 124 20.06 124 0 124 C0 122.35 0 120.7 0 119 C1.0725 118.773125 2.145 118.54625 3.25 118.3125 C7.61339132 116.78531304 8.66327312 115.93343665 11 112 C11.56964578 108.76868661 11.52623999 105.59020261 11.48583984 102.31616211 C11.48963654 101.34650009 11.49343323 100.37683807 11.49734497 99.37779236 C11.50474558 96.17731226 11.48337576 92.97774296 11.4609375 89.77734375 C11.45855287 87.55204881 11.45764779 85.32675184 11.4581604 83.10145569 C11.45503331 78.4401487 11.43847353 73.77914949 11.41162109 69.11791992 C11.37762188 63.14006495 11.36999315 57.16254784 11.37151146 51.18460751 C11.37096791 46.59071115 11.36000337 41.9968888 11.34550858 37.40301704 C11.33914041 35.19857913 11.33520164 32.99413282 11.33372116 30.7896862 C11.32938955 27.71112627 11.31189179 24.6329261 11.29052734 21.55444336 C11.2918869 20.18518707 11.2918869 20.18518707 11.29327393 18.78826904 C11.28474396 17.94858078 11.27621399 17.10889252 11.26742554 16.24375916 C11.26407385 15.51650603 11.26072216 14.78925291 11.25726891 14.03996181 C10.9549951 11.64314274 10.26490813 10.05122304 9 8 C6.84255767 6.66653971 6.84255767 6.66653971 4.375 5.75 C3.55773437 5.41484375 2.74046875 5.0796875 1.8984375 4.734375 C1.27195312 4.49203125 0.64546875 4.2496875 0 4 C0 2.68 0 1.36 0 0 Z " fill="#3BB270" transform="translate(116,530)"/>
<path d="M0 0 C5.115 -0.061875 10.23 -0.12375 15.5 -0.1875 C17.89668945 -0.22846802 17.89668945 -0.22846802 20.34179688 -0.27026367 C36.14043742 -0.3627872 36.14043742 -0.3627872 41.97265625 4.71875 C43.46312552 8.02838518 43.43394194 10.8850127 43.4375 14.5 C43.45683594 15.8096875 43.47617187 17.119375 43.49609375 18.46875 C42.93365399 22.47225823 42.16425757 23.59587135 39 26 C38.01 26.495 38.01 26.495 37 27 C37.804375 27.61875 38.60875 28.2375 39.4375 28.875 C42 31 42 31 43 33 C43.07187519 35.71975715 43.0927862 38.40674632 43.0625 41.125 C43.041875 43.72375 43.02125 46.3225 43 49 C37.39 49 31.78 49 26 49 C25.67 44.05 25.34 39.1 25 34 C22.03 33.34 19.06 32.68 16 32 C16 37.61 16 43.22 16 49 C10.72 49 5.44 49 0 49 C0 32.83 0 16.66 0 0 Z M16 9 C16 13.62 16 18.24 16 23 C22.7018576 23.52174919 22.7018576 23.52174919 27 21 C27 17.7 27 14.4 27 11 C22.7018576 8.47825081 22.7018576 8.47825081 16 9 Z " fill="#18B0A9" transform="translate(505,701)"/>
<path d="M0 0 C3.63361152 2.71861007 5.67679405 5.58490085 7.17578125 9.83203125 C7.75187767 15.016899 7.56164797 18.621404 4.640625 23.1640625 C0.00825547 28.43878727 -6.8282116 32.28591641 -13.82763672 33.05102539 C-26.10429742 33.71309705 -35.92006649 32.82416594 -45.44921875 24.39453125 C-49.02766912 20.32811038 -49.25996801 16.54267144 -49.13671875 11.296875 C-48.50030848 6.27718898 -45.58189375 3.58970625 -42.13671875 0.14453125 C-30.62266428 -8.62538739 -11.76207513 -7.53075046 0 0 Z " fill="#00F898" transform="translate(457.82421875,305.16796875)"/>
<path d="M0 0 C5.28 -0.0825 10.56 -0.165 16 -0.25 C18.475 -0.30462402 18.475 -0.30462402 21 -0.36035156 C34.77636762 -0.54071138 34.77636762 -0.54071138 41 4 C43.47756559 7.53915834 43.30631901 11.26843513 43.30078125 15.43359375 C43.30506638 16.14854507 43.3093515 16.8634964 43.31376648 17.60011292 C43.31949654 19.10880476 43.3200198 20.61752423 43.31567383 22.1262207 C43.31251521 24.42642661 43.33598258 26.72534371 43.36132812 29.02539062 C43.36360151 30.49479005 43.36430443 31.96419292 43.36328125 33.43359375 C43.372491 34.11707382 43.38170074 34.80055389 43.39118958 35.50474548 C43.34938204 39.85005943 42.86832231 42.68257661 40 46 C35.04085773 48.78608184 30.68552717 49.41970122 25.09765625 49.29296875 C24.45598511 49.28994751 23.81431396 49.28692627 23.15319824 49.28381348 C20.78946511 49.26828928 18.42596389 49.22640712 16.0625 49.1875 C10.761875 49.125625 5.46125 49.06375 0 49 C0 32.83 0 16.66 0 0 Z M16 9 C16 19.23 16 29.46 16 40 C23.49152482 40.73960026 23.49152482 40.73960026 27 38 C27.4672037 35.22271215 27.4672037 35.22271215 27.3984375 31.96875 C27.40230469 30.76605469 27.40617188 29.56335938 27.41015625 28.32421875 C27.39855469 27.06222656 27.38695312 25.80023437 27.375 24.5 C27.38660156 23.23800781 27.39820313 21.97601562 27.41015625 20.67578125 C27.40628906 19.47308594 27.40242187 18.27039063 27.3984375 17.03125 C27.39505371 15.92330078 27.39166992 14.81535156 27.38818359 13.67382812 C27.26008301 12.79146484 27.13198242 11.90910156 27 11 C23.49152482 8.26039974 23.49152482 8.26039974 16 9 Z " fill="#18B0A9" transform="translate(799,701)"/>
<path d="M0 0 C9.24 0 18.48 0 28 0 C29.29964313 3.24910782 30.30387399 5.86211769 31.05322266 9.17602539 C31.23325836 9.96356705 31.41329407 10.7511087 31.5987854 11.56251526 C31.78532684 12.39911179 31.97186829 13.23570831 32.1640625 14.09765625 C32.36099701 14.96893661 32.55793152 15.84021698 32.76083374 16.73789978 C33.17463901 18.57391007 33.58635004 20.41039347 33.99609375 22.24731445 C34.62390789 25.05761138 35.26072118 27.86576371 35.8984375 30.67382812 C36.30002147 32.46081572 36.70108107 34.24792125 37.1015625 36.03515625 C37.38744736 37.29308739 37.38744736 37.29308739 37.67910767 38.57643127 C37.85283905 39.36082077 38.02657043 40.14521027 38.20556641 40.95336914 C38.35941803 41.64000137 38.51326965 42.32663361 38.67178345 43.03407288 C39 45 39 45 39 49 C33.06 49 27.12 49 21 49 C20.01 43.555 20.01 43.555 19 38 C15.7 37.67 12.4 37.34 9 37 C8.93941406 37.78246094 8.87882813 38.56492187 8.81640625 39.37109375 C8.69072266 40.88896484 8.69072266 40.88896484 8.5625 42.4375 C8.48128906 43.44683594 8.40007813 44.45617187 8.31640625 45.49609375 C8 48 8 48 7 49 C4.13732433 49.07325168 1.299281 49.09238205 -1.5625 49.0625 C-2.36880859 49.05798828 -3.17511719 49.05347656 -4.00585938 49.04882812 C-6.00393756 49.03700518 -8.00197783 49.01906914 -10 49 C-9.39589586 42.64994684 -8.37058916 36.58149116 -6.93359375 30.37109375 C-6.73524429 29.49598648 -6.53689484 28.62087921 -6.33253479 27.71925354 C-5.70547902 24.9575924 -5.07161398 22.19754804 -4.4375 19.4375 C-4.0080101 17.5515355 -3.5789694 15.66546864 -3.15039062 13.77929688 C-2.10627554 9.18478659 -1.05294242 4.5925307 0 0 Z M14 9 C13.49521515 11.41575607 12.99602358 13.83244361 12.5 16.25 C12.35691406 16.93191406 12.21382812 17.61382813 12.06640625 18.31640625 C11.38748951 21.64633121 11 24.58332551 11 28 C13.31 28 15.62 28 18 28 C17.01 21.73 16.02 15.46 15 9 C14.67 9 14.34 9 14 9 Z " fill="#18B0A9" transform="translate(910,701)"/>
<path d="M0 0 C9.24 0 18.48 0 28 0 C29.29964313 3.24910782 30.30387399 5.86211769 31.05322266 9.17602539 C31.23325836 9.96356705 31.41329407 10.7511087 31.5987854 11.56251526 C31.78532684 12.39911179 31.97186829 13.23570831 32.1640625 14.09765625 C32.36099701 14.96893661 32.55793152 15.84021698 32.76083374 16.73789978 C33.17463901 18.57391007 33.58635004 20.41039347 33.99609375 22.24731445 C34.62390789 25.05761138 35.26072118 27.86576371 35.8984375 30.67382812 C36.30002147 32.46081572 36.70108107 34.24792125 37.1015625 36.03515625 C37.38744736 37.29308739 37.38744736 37.29308739 37.67910767 38.57643127 C37.85283905 39.36082077 38.02657043 40.14521027 38.20556641 40.95336914 C38.35941803 41.64000137 38.51326965 42.32663361 38.67178345 43.03407288 C39 45 39 45 39 49 C33.06 49 27.12 49 21 49 C20.01 43.555 20.01 43.555 19 38 C15.7 37.67 12.4 37.34 9 37 C8.93941406 37.78246094 8.87882812 38.56492187 8.81640625 39.37109375 C8.69072266 40.88896484 8.69072266 40.88896484 8.5625 42.4375 C8.48128906 43.44683594 8.40007812 44.45617187 8.31640625 45.49609375 C8 48 8 48 7 49 C4.13732433 49.07325168 1.299281 49.09238205 -1.5625 49.0625 C-2.36880859 49.05798828 -3.17511719 49.05347656 -4.00585938 49.04882812 C-6.00393756 49.03700518 -8.00197783 49.01906914 -10 49 C-9.39589586 42.64994684 -8.37058916 36.58149116 -6.93359375 30.37109375 C-6.73524429 29.49598648 -6.53689484 28.62087921 -6.33253479 27.71925354 C-5.70547902 24.9575924 -5.07161398 22.19754804 -4.4375 19.4375 C-4.0080101 17.5515355 -3.5789694 15.66546864 -3.15039062 13.77929688 C-2.10627554 9.18478659 -1.05294242 4.5925307 0 0 Z M14 9 C13.49521515 11.41575607 12.99602358 13.83244361 12.5 16.25 C12.35691406 16.93191406 12.21382812 17.61382813 12.06640625 18.31640625 C11.38748951 21.64633121 11 24.58332551 11 28 C13.31 28 15.62 28 18 28 C17.01 21.73 16.02 15.46 15 9 C14.67 9 14.34 9 14 9 Z " fill="#18B0A9" transform="translate(211,701)"/>
<path d="M0 0 C5.94 0 11.88 0 18 0 C19.65 11.22 21.3 22.44 23 34 C24.97990247 32.02009753 24.79684096 28.39716198 25.19140625 25.68359375 C25.35575417 24.58701195 25.35575417 24.58701195 25.52342224 23.46827698 C25.87366466 21.12524413 26.21813952 18.78140384 26.5625 16.4375 C26.79844973 14.85215718 27.03477297 13.2668699 27.27148438 11.68164062 C27.85270546 7.78847905 28.42612837 3.89428019 29 0 C34.94 0 40.88 0 47 0 C46.38542479 6.22024608 45.45667129 12.25733675 44.1875 18.375 C44.01371826 19.22553955 43.83993652 20.0760791 43.66088867 20.95239258 C43.29641967 22.73087692 42.92994245 24.50895081 42.56152344 26.28662109 C41.99600144 29.01932173 41.43902089 31.75367146 40.8828125 34.48828125 C40.52654661 36.22145804 40.16979363 37.95453479 39.8125 39.6875 C39.64580811 40.50718262 39.47911621 41.32686523 39.30737305 42.17138672 C38.11505898 47.88494102 38.11505898 47.88494102 37 49 C35.00035018 49.08758003 32.9976389 49.10696576 30.99609375 49.09765625 C29.78115234 49.09443359 28.56621094 49.09121094 27.31445312 49.08789062 C26.03505859 49.07951172 24.75566406 49.07113281 23.4375 49.0625 C22.15423828 49.05798828 20.87097656 49.05347656 19.54882812 49.04882812 C16.36583978 49.03699545 13.18294238 49.02051068 10 49 C7.92351833 44.43439508 7.01717771 39.79228963 6.0546875 34.90234375 C5.7925798 33.5954232 5.7925798 33.5954232 5.525177 32.26210022 C5.15817092 30.42609312 4.79354408 28.589609 4.43115234 26.75268555 C3.87598858 23.94250407 3.31159848 21.13428853 2.74609375 18.32617188 C2.39007324 16.53917234 2.03458626 14.75206641 1.6796875 12.96484375 C1.51097137 12.12622299 1.34225525 11.28760223 1.16842651 10.42356873 C1.01471588 9.63917923 0.86100525 8.85478973 0.70263672 8.04663086 C0.56654999 7.35999863 0.43046326 6.67336639 0.29025269 5.96592712 C0 4 0 4 0 0 Z " fill="#18B0A9" transform="translate(604,701)"/>
<path d="M0 0 C5.28 0 10.56 0 16 0 C16.33 12.54 16.66 25.08 17 38 C22.46084261 39.51465024 22.46084261 39.51465024 25 38 C25.33 25.46 25.66 12.92 26 0 C31.28 0 36.56 0 42 0 C42.09913284 5.72911572 42.1715934 11.45772839 42.21972656 17.1875 C42.23979906 19.13517966 42.26706332 21.08279937 42.30175781 23.03027344 C42.35046852 25.83543721 42.37301241 28.63980187 42.390625 31.4453125 C42.41127014 32.31116974 42.43191528 33.17702698 42.45318604 34.06912231 C42.45518698 39.50256228 41.7984804 42.80351408 38 47 C32.74257725 49.96527398 26.93234398 49.33008491 21.0625 49.3125 C19.99064453 49.32861328 18.91878906 49.34472656 17.81445312 49.36132812 C7.57093452 49.36767086 7.57093452 49.36767086 3 46 C-0.69445654 41.42995947 -0.39250009 37.1419383 -0.29296875 31.54296875 C-0.28872391 30.64000565 -0.28447906 29.73704254 -0.28010559 28.80671692 C-0.26336311 25.9333365 -0.22571916 23.06066709 -0.1875 20.1875 C-0.17244743 18.2350362 -0.15876003 16.28256136 -0.14648438 14.33007812 C-0.11347408 9.55311303 -0.06172235 4.77667691 0 0 Z " fill="#18B0A9" transform="translate(402,701)"/>
<path d="M0 0 C1.41152344 -0.00193359 1.41152344 -0.00193359 2.8515625 -0.00390625 C4.33269531 0.00189453 4.33269531 0.00189453 5.84375 0.0078125 C6.80023437 0.00394531 7.75671875 0.00007812 8.7421875 -0.00390625 C26.23072846 0.01979096 26.23072846 0.01979096 29.34375 3.1328125 C17.99233941 20.09651268 2.6421255 31.6274403 -17.57666016 35.72460938 C-25.76410157 37.06934332 -33.68243696 37.37560591 -41.96875 37.2578125 C-43.81243164 37.24427734 -43.81243164 37.24427734 -45.69335938 37.23046875 C-48.68120544 37.20721703 -51.66861484 37.17454373 -54.65625 37.1328125 C-54.98625 36.4728125 -55.31625 35.8128125 -55.65625 35.1328125 C-55.10799561 34.95218262 -54.55974121 34.77155273 -53.99487305 34.58544922 C-36.16308817 28.6621011 -18.30940906 22.48240918 -8.65625 5.1328125 C-8.3159375 4.40578125 -7.975625 3.67875 -7.625 2.9296875 C-5.84085293 -0.37961755 -3.43933527 0.00457706 0 0 Z " fill="#00F797" transform="translate(635.65625,203.8671875)"/>
<path d="M0 0 C6.39304491 0 11.41294424 1.78343943 17.1875 4.3125 C17.86433838 4.60833984 18.54117676 4.90417969 19.23852539 5.20898438 C23.45204862 7.12182786 27.29960797 9.20888004 31 12 C31 12.66 31 13.32 31 14 C4.52633003 26.09218628 -23.14150741 31.31638543 -51.34326172 21.15576172 C-65.58295686 15.83408628 -65.58295686 15.83408628 -67 13 C-66.14172607 13.01571045 -66.14172607 13.01571045 -65.26611328 13.03173828 C-42.7824697 13.38634156 -20.9262728 12.74791594 -1 1 C-0.67 0.67 -0.34 0.34 0 0 Z " fill="#3AB16F" transform="translate(645,229)"/>
<path d="M0 0 C7.85305307 3.24094253 14.34555131 12.50746197 18 20 C18 20.66 18 21.32 18 22 C15.98828125 23.55078125 15.98828125 23.55078125 13.3125 25.3125 C3.59764919 31.93065648 -3.65479196 40.23311606 -6.25 51.875 C-7.14447528 56.92800069 -7.19594914 61.88355035 -7 67 C-14.0475271 64.23132864 -18.43916978 55.77921651 -21.5 49.1875 C-24.60822832 40.45948386 -24.23538834 30.68577992 -20.32421875 22.30078125 C-15.32184852 13.60934743 -8.11765054 5.8677474 0 0 Z " fill="#00F797" transform="translate(576,168)"/>
<path d="M0 0 C10.64490414 2.57740789 20.64318261 6.2583166 30 12 C29.48532495 14.83071277 28.84946894 17.45159318 27.9375 20.1875 C25.4968549 30.11279006 27.30037519 38.6447541 32.42578125 47.44921875 C33.89262109 49.68169592 35.42011943 51.84635207 37 54 C37.95856422 55.35400324 38.91691708 56.70815615 39.875 58.0625 C40.57625 59.031875 41.2775 60.00125 42 61 C36.67754491 60.44280548 32.67648302 58.60925014 28 56.1875 C27.31421875 55.84396484 26.6284375 55.50042969 25.921875 55.14648438 C12.17277736 48.15386124 2.96751079 39.90253237 -2 25 C-2.12343843 22.07192556 -2.18514627 19.17804565 -2.1875 16.25 C-2.19974609 15.46367187 -2.21199219 14.67734375 -2.22460938 13.8671875 C-2.23709648 8.85569445 -1.60673771 4.75035497 0 0 Z " fill="#3BB16F" transform="translate(524,176)"/>
<path d="M0 0 C10.56 0 21.12 0 32 0 C32 2.97 32 5.94 32 9 C26.72 9 21.44 9 16 9 C16 12.3 16 15.6 16 19 C20.95 19 25.9 19 31 19 C31 21.97 31 24.94 31 28 C26.05 28 21.1 28 16 28 C16 31.96 16 35.92 16 40 C21.61 40 27.22 40 33 40 C33 42.97 33 45.94 33 49 C22.11 49 11.22 49 0 49 C0 32.83 0 16.66 0 0 Z " fill="#18B0A9" transform="translate(708,701)"/>
<path d="M0 0 C5.94 0 11.88 0 18 0 C20.475 8.415 20.475 8.415 23 17 C25.24808254 13.62787619 26.05160443 10.7125039 27.125 6.8125 C27.74375 4.564375 28.3625 2.31625 29 0 C34.61 0 40.22 0 46 0 C44.12513177 6.16665844 41.73403954 11.74544872 38.87426758 17.515625 C33.47409897 28.4900761 30.64677961 36.7550265 31 49 C25.72 49 20.44 49 15 49 C14.97099609 45.54660156 14.97099609 45.54660156 14.94140625 42.0234375 C14.53722065 32.51998525 11.09639601 25.03366375 6.9375 16.625 C5.93990167 14.54452206 4.94980171 12.46063318 3.96180725 10.37557983 C3.3514673 9.09442504 2.73410922 7.81658368 2.10887146 6.54263306 C0 2.21282173 0 2.21282173 0 0 Z " fill="#18B0A9" transform="translate(302,701)"/>
<path d="M0 0 C0.99 0.495 0.99 0.495 2 1 C2 1.66 2 2.32 2 3 C1.34 3 0.68 3 0 3 C0 2.01 0 1.02 0 0 Z " fill="#A4C760" transform="translate(250,629)"/>
</svg>
